<?xml version="1.0" encoding="UTF-8"?>
<svg version="1.1" xmlns="http://www.w3.org/2000/svg" width="999" height="658">
<path d="M0 0 C1.19696615 -0.01006551 2.3939323 -0.02013102 3.62717015 -0.03050154 C6.93309647 -0.05216544 10.23698064 -0.04708565 13.54280245 -0.03037608 C17.11418354 -0.01882936 20.68536976 -0.04186071 24.25669861 -0.06033325 C31.24649756 -0.09083207 38.23592302 -0.08882968 45.22576051 -0.07488243 C50.9082125 -0.06405521 56.5905572 -0.06459749 62.27301216 -0.07320213 C63.48725979 -0.07501431 63.48725979 -0.07501431 64.72603767 -0.07686311 C66.37065485 -0.07935382 68.01527199 -0.08186481 69.65988911 -0.08439585 C85.07393227 -0.10666607 100.48776652 -0.09141256 115.90178961 -0.06380954 C129.11883575 -0.0410942 142.33549464 -0.05276844 155.55250549 -0.08903503 C170.91073905 -0.13117256 186.26873258 -0.15026872 201.62702328 -0.13401049 C203.26581478 -0.13235089 204.90460633 -0.13072754 206.5433979 -0.12914085 C207.3496559 -0.12835591 208.1559139 -0.12757097 208.98660396 -0.12676224 C214.65969336 -0.12287575 220.33260575 -0.13557324 226.0056591 -0.15487099 C232.92311507 -0.17802792 239.84003185 -0.17632877 246.75745492 -0.14295784 C250.28493648 -0.12658374 253.81148378 -0.1212856 257.33893394 -0.14655685 C261.16753384 -0.17361575 264.99466153 -0.14615424 268.82324219 -0.11352539 C269.93161751 -0.12982256 271.03999283 -0.14611973 272.18195528 -0.16291076 C280.14381983 -0.02705083 284.26743622 2.33440125 289.97511292 7.76863098 C291.02360115 8.66065616 292.07415933 9.55025825 293.12745667 10.43659973 C320.09258218 34.83001622 336.48044637 67.70671746 340.97511292 103.76863098 C341.06450106 106.37741556 341.11573028 108.95790527 341.10792542 111.56550598 C341.10888214 112.28095581 341.10983887 112.99640564 341.11082458 113.73353577 C341.11150031 115.23270252 341.10968878 116.73187231 341.10548401 118.23103333 C341.10009518 120.52618416 341.10546578 122.82114214 341.11183167 125.11628723 C341.11117139 126.57852725 341.10989129 128.04076714 341.10792542 129.50300598 C341.10994965 130.18739746 341.11197388 130.87178894 341.11405945 131.57691956 C341.09916792 134.5903374 340.93652768 136.88438668 339.97511292 139.76863098 C340.53714417 139.79441223 341.09917542 139.82019348 341.67823792 139.84675598 C373.73680378 142.01021748 405.51144607 154.26611158 430.97511292 173.76863098 C431.82589417 174.41058411 432.67667542 175.05253723 433.55323792 175.71394348 C469.00069205 203.24702892 492.50945419 241.65932357 500.97511292 285.76863098 C501.15388977 286.67580872 501.33266663 287.58298645 501.51686096 288.51765442 C503.22083014 298.15096256 503.33124118 307.64420804 503.28761292 317.39363098 C503.28487869 318.65803513 503.28487869 318.65803513 503.28208923 319.94798279 C503.23769554 332.12530436 502.8508832 343.8845242 499.97511292 355.76863098 C499.79818909 356.5460968 499.62126526 357.32356262 499.4389801 358.12458801 C492.19425542 389.64977601 476.51926956 417.90759542 454.78761292 441.70613098 C454.32508118 442.21353821 453.86254944 442.72094543 453.38600159 443.24372864 C429.58901389 468.72350034 397.53257571 485.34932126 363.78761292 493.01863098 C363.12439026 493.16977356 362.4611676 493.32091614 361.77784729 493.47663879 C348.07579034 496.39211008 334.48789088 497.13183317 320.53761292 497.39363098 C318.82340314 497.43193735 317.10921 497.47099569 315.39503479 497.51081848 C311.25520061 497.60539275 307.11527754 497.68990481 302.97511292 497.76863098 C302.58621887 498.712547 302.19732483 499.65646301 301.79664612 500.62898254 C301.26920701 501.88920413 300.74143875 503.14928798 300.21339417 504.40925598 C299.95916687 505.02881165 299.70493958 505.64836731 299.44300842 506.28669739 C296.82049939 512.50876871 293.23504099 517.5751275 288.97511292 522.76863098 C288.28546448 523.62199036 287.59581604 524.47534973 286.88526917 525.35456848 C270.14584038 545.03020811 246.14092075 554.11883554 221.93995667 560.80769348 C220.554597 561.19349682 219.16927828 561.57944719 217.78399658 561.9655304 C200.8226942 566.67977345 183.82371792 571.25711749 166.81373596 575.79206848 C163.09389532 576.78439975 159.37596888 577.78350332 155.65943909 578.78816223 C151.07352999 580.02778606 146.48469947 581.25597531 141.89359093 582.47619629 C140.17559466 582.93474355 138.45861318 583.39711336 136.74277687 583.86367798 C110.42611872 591.00984351 110.42611872 591.00984351 100.19776917 586.12019348 C94.57276889 582.6997188 91.1115541 579.08647033 89.03761292 572.76863098 C87.25269923 565.42942068 87.47998695 559.47314665 90.97511292 552.76863098 C95.43324331 546.5861294 100.65429955 542.65488791 107.16261292 538.83113098 C108.85498434 537.79837887 110.54509358 536.76191061 112.23292542 535.72175598 C113.04664612 535.2209552 113.86036682 534.72015442 114.69874573 534.20417786 C129.99454143 524.55818057 145.1305535 511.70785848 153.97511292 495.76863098 C152.71698792 495.53788879 151.45886292 495.30714661 150.16261292 495.06941223 C122.45698172 489.84994453 97.08769104 480.11220742 73.97511292 463.76863098 C73.4014801 464.08574036 72.82784729 464.40284973 72.23683167 464.72956848 C69.15630885 466.42175248 66.06692704 468.09720834 62.97511292 469.76863098 C62.28353088 470.14374817 61.59194885 470.51886536 60.87940979 470.90534973 C29.78909737 487.71533493 -0.79653716 497.88446718 -36.02488708 501.76863098 C-29.81317845 524.05586699 -16.1858022 539.76593919 1.97511292 553.76863098 C2.96124573 554.58202942 3.94737854 555.39542786 4.96339417 556.23347473 C14.85194655 564.3504919 25.55316445 571.15900609 36.3127594 578.05403137 C55.28199364 590.27053133 55.28199364 590.27053133 57.85011292 601.64363098 C58.37721008 608.10684622 56.88434591 614.55632033 52.97511292 619.76863098 C48.61129753 624.88052901 43.93226026 628.39694773 37.13136292 629.03573608 C29.1463793 629.08696246 22.15450562 627.97379113 14.47511292 625.85847473 C13.28131516 625.54362122 12.0875174 625.2287677 10.85754395 624.90437317 C7.57981936 624.03615511 4.30661392 623.15366411 1.03466415 622.26409531 C-2.46982192 621.31467576 -5.9790018 620.38289643 -9.48753357 619.44856262 C-15.63959212 617.80735732 -21.78800321 616.15298855 -27.93455505 614.49128723 C-35.89290225 612.34003291 -43.85625407 610.20796203 -51.8215847 608.08272457 C-61.31418243 605.54970778 -70.80348268 603.00448946 -80.29197693 600.45615005 C-83.05826923 599.71394341 -85.82508533 598.97371889 -88.59202576 598.2339325 C-167.63375445 577.08249667 -167.63375445 577.08249667 -195.02488708 549.76863098 C-195.90273865 548.89593567 -196.78059021 548.02324036 -197.68504333 547.12409973 C-198.45719177 546.34679504 -199.22934021 545.56949036 -200.02488708 544.76863098 C-200.58691833 544.20402161 -201.14894958 543.63941223 -201.72801208 543.05769348 C-210.69004523 533.41671843 -222.02488708 516.49574661 -222.02488708 502.76863098 C-222.87455803 502.77862373 -222.87455803 502.77862373 -223.74139404 502.78881836 C-278.3180159 503.40091363 -278.3180159 503.40091363 -299.02488708 499.76863098 C-299.99168396 499.60234192 -300.95848083 499.43605286 -301.95457458 499.26472473 C-336.19516673 493.13411473 -370.65218899 479.24682203 -398.38475037 458.02351379 C-400.04411915 456.75391636 -401.71926041 455.50737538 -403.39598083 454.26081848 C-434.45043817 430.84060034 -458.79430239 400.0647646 -475.02488708 364.76863098 C-475.35585388 364.05158997 -475.68682068 363.33454895 -476.02781677 362.59577942 C-484.70375221 343.54193078 -490.810323 323.46607373 -494.02488708 302.76863098 C-494.20148865 301.64416565 -494.37809021 300.51970032 -494.56004333 299.36116028 C-496.16247768 288.05612905 -496.42412855 276.86321152 -496.39988708 265.45613098 C-496.39934326 264.49019012 -496.39879944 263.52424927 -496.39823914 262.52903748 C-496.35721499 246.63185404 -495.43246071 231.34907418 -492.02488708 215.76863098 C-491.81058044 214.78249817 -491.5962738 213.79636536 -491.37547302 212.78034973 C-481.0444509 166.88474634 -458.28818531 126.89458398 -425.02488708 93.76863098 C-424.44561462 93.1867804 -423.86634216 92.60492981 -423.26951599 92.00544739 C-379.47533585 48.41325827 -318.00955022 26.53535747 -256.9213562 26.50868225 C-254.81849618 26.51416211 -252.71563669 26.51984497 -250.61277771 26.52571106 C-248.34048406 26.52463517 -246.06819069 26.52269195 -243.79589844 26.5199585 C-237.69160923 26.51516043 -231.58739446 26.52269891 -225.48311424 26.53291154 C-219.0748797 26.54176158 -212.666647 26.53993335 -206.25840759 26.53955078 C-195.51958219 26.5404834 -184.78079171 26.54906354 -174.04197693 26.56282043 C-163.00193263 26.57695572 -151.96191321 26.58398873 -140.92185974 26.58332825 C-140.23937985 26.58328829 -139.55689995 26.58324833 -138.85373884 26.58320717 C-137.83173373 26.58314664 -137.83173373 26.58314664 -136.78908205 26.58308488 C-123.54423775 26.58236058 -110.29940493 26.58933898 -97.05456352 26.59853148 C-93.24196197 26.60066317 -89.42936235 26.60137267 -85.61676025 26.6017704 C-79.64122313 26.60277285 -73.66571214 26.60886136 -67.69018364 26.61893654 C-65.49554543 26.62186235 -63.3009042 26.62308674 -61.10626411 26.622509 C-58.11780674 26.62201985 -55.12942308 26.62765846 -52.14097595 26.63491821 C-50.83070301 26.63259531 -50.83070301 26.63259531 -49.4939599 26.63022548 C-48.29351801 26.63506215 -48.29351801 26.63506215 -47.06882477 26.63999653 C-46.37946193 26.64070095 -45.6900991 26.64140538 -44.97984648 26.64213115 C-42.89510888 26.77702856 -41.03232049 27.20341397 -39.02488708 27.76863098 C-38.77996521 27.20788879 -38.53504333 26.64714661 -38.28269958 26.06941223 C-34.13144927 18.47597609 -26.73944208 12.12132738 -20.02488708 6.76863098 C-19.2608331 6.04696943 -19.2608331 6.04696943 -18.48134369 5.31072885 C-12.57617326 0.17094372 -7.62777331 -0.08724028 0 0 Z M17.97511292 38.76863098 C20.39025446 40.37872534 22.10991027 41.28841184 24.76417542 42.25691223 C44.88537251 49.81907046 64.03244809 59.34208098 81.16847229 72.39704895 C82.86288729 73.6834305 84.57740117 74.935048 86.30323792 76.17878723 C110.09038114 93.72619953 129.84028674 116.44909096 144.97511292 141.76863098 C145.80011292 141.70804504 146.62511292 141.64745911 147.47511292 141.58503723 C148.63011292 141.50124817 149.78511292 141.41745911 150.97511292 141.33113098 C152.64573792 141.20931458 152.64573792 141.20931458 154.35011292 141.08503723 C155.04689148 141.03806702 155.74367004 140.9910968 156.46156311 140.94270325 C158.29913618 140.81544478 160.13589321 140.67624514 161.97206116 140.53010559 C175.34755123 139.55722706 188.7260001 139.54219158 202.13136292 139.45222473 C204.73166706 139.43161303 207.33196817 139.41061558 209.93226624 139.38925171 C216.03388438 139.3400399 222.13551956 139.29466524 228.23718119 139.25122935 C235.19512599 139.20147773 242.15302859 139.14670295 249.11093235 139.09154975 C263.39895275 138.97840323 277.68701445 138.87142333 291.97511292 138.76863098 C295.30248397 122.93623045 294.05980411 105.08606519 288.97511292 89.76863098 C288.76612366 89.13070618 288.5571344 88.49278137 288.34181213 87.83552551 C280.178091 63.5645074 261.93347972 42.24781439 238.97511292 30.76863098 C215.51041979 19.91142449 192.15630248 19.6082384 166.71730042 19.60066223 C164.16205324 19.59744173 161.60680625 19.59407708 159.05155945 19.59057617 C153.71096801 19.58461254 148.37039354 19.58269012 143.02980042 19.58332825 C136.91210826 19.58392739 130.79450473 19.57339608 124.67683494 19.55758458 C118.72882547 19.54277588 112.78084223 19.53934443 106.83281326 19.53993797 C104.33177962 19.53877016 101.83074508 19.53441717 99.32972336 19.52660561 C69.49202825 19.44213678 43.16932806 21.36524237 17.97511292 38.76863098 Z M-307.46238708 80.58113098 C-308.36231384 80.83974915 -309.2622406 81.09836731 -310.18943787 81.36482239 C-324.19500341 85.47707363 -337.1405591 90.93502757 -350.02488708 97.76863098 C-351.74965271 98.65808411 -351.74965271 98.65808411 -353.50926208 99.56550598 C-384.70584194 116.38578175 -410.47515457 144.70438469 -427.02488708 175.76863098 C-427.37889587 176.4326593 -427.73290466 177.09668762 -428.09764099 177.78083801 C-451.37807709 222.34249866 -454.71801827 275.01334392 -440.02488708 322.76863098 C-433.20488594 344.02687887 -422.8032897 362.9591042 -409.39988708 380.70613098 C-408.61049744 381.7534137 -408.61049744 381.7534137 -407.80516052 382.82185364 C-404.64558715 386.92222095 -401.30229421 390.63959683 -397.5700531 394.2278595 C-396.02488708 395.76863098 -396.02488708 395.76863098 -393.58738708 398.76863098 C-390.37387241 402.5307945 -386.81186471 405.59874234 -383.02488708 408.76863098 C-382.22180115 409.45956848 -381.41871521 410.15050598 -380.59129333 410.86238098 C-344.06876625 441.68674262 -299.7613072 454.81264935 -252.59129333 455.13972473 C-251.78224108 455.14535305 -250.97318882 455.15098137 -250.13961983 455.15678024 C-243.43014867 455.19732167 -236.72067609 455.20750189 -230.01109314 455.20527649 C-224.95980334 455.2036049 -219.90907383 455.21739008 -214.85790825 455.25375557 C-212.52628055 455.2644496 -210.19549049 455.25255115 -207.8638916 455.2399292 C-199.36841994 455.26012954 -191.81597209 455.54342688 -185.19555664 461.38189697 C-179.16480833 467.52409539 -178.06806529 474.87911212 -177.08738708 483.14363098 C-175.14999396 498.78339321 -168.05228737 510.59984827 -156.02488708 520.76863098 C-132.31825755 538.14567834 -103.7670699 544.58809375 -75.79441833 551.82722473 C-75.04014557 552.02373627 -74.2858728 552.2202478 -73.50874329 552.42271423 C-69.81445425 553.4185813 -69.81445425 553.4185813 -66.02488708 553.76863098 C-67.51788964 549.64947521 -69.5601544 546.12951175 -71.83738708 542.39363098 C-83.08249325 523.22085247 -85.51652878 502.13971854 -80.02488708 480.76863098 C-77.24851658 471.48355306 -73.77964731 463.78269514 -65.66160583 458.12019348 C-62.76300291 456.63439109 -60.56550839 456.1654295 -57.33738708 455.76863098 C-56.10891052 455.61007629 -54.88043396 455.45152161 -53.61473083 455.28816223 C-50.08939649 454.87638015 -46.55984352 454.51446763 -43.02879333 454.15534973 C-13.76730889 451.11772688 12.28053993 443.24778989 37.97511292 428.76863098 C37.42343445 427.94951233 37.42343445 427.94951233 36.86061096 427.11384583 C35.85752143 425.62004023 34.8618352 424.12126001 33.86964417 422.62019348 C32.57141968 420.66616487 31.25533211 418.72392056 29.92433167 416.79206848 C10.52755043 387.92083815 0.55093937 353.67488656 0.60011292 318.95613098 C0.60092865 317.96424271 0.60092865 317.96424271 0.60176086 316.95231628 C0.67685257 296.83164456 3.89543753 277.65673911 10.48780823 258.64607239 C11.14260157 256.44662198 11.14260157 256.44662198 10.97511292 252.76863098 C9.62933167 252.11120911 9.62933167 252.11120911 8.25636292 251.44050598 C-10.64804759 241.93706926 -27.16309496 228.60069905 -40.02488708 211.76863098 C-40.6913324 210.91784973 -41.35777771 210.06706848 -42.04441833 209.19050598 C-65.30906467 178.53807254 -75.02711927 139.3572443 -70.45848083 101.23347473 C-69.47093066 94.40114481 -68.02278637 87.71228086 -66.46556091 80.98884583 C-66.19568863 79.82267731 -65.92581635 78.65650879 -65.64776611 77.45500183 C-65.44221603 76.56849945 -65.23666595 75.68199707 -65.02488708 74.76863098 C-91.74747275 74.69830378 -118.47004438 74.64552726 -145.1927042 74.61319447 C-157.60269848 74.59777749 -170.01263499 74.57678774 -182.42259216 74.54231262 C-193.24906088 74.51225101 -204.07548773 74.4930185 -214.90199703 74.4863655 C-220.62549875 74.48248142 -226.34888077 74.47346327 -232.07234383 74.45144081 C-237.47890973 74.43080973 -242.88530864 74.4248499 -248.29191017 74.42930794 C-250.25764123 74.42849446 -252.22337892 74.4226896 -254.18907547 74.41101456 C-272.03002435 74.31040701 -290.27800585 75.43174346 -307.46238708 80.58113098 Z M-16.02488708 79.76863098 C-25.65111478 107.01267162 -28.09959549 134.39864527 -15.73143005 161.33113098 C-5.82570328 181.95100102 9.99568183 199.84415285 30.66651917 210.10456848 C33.31907664 210.86757148 34.4708581 210.91641444 36.97511292 209.76863098 C38.56172149 208.14085542 38.56172149 208.14085542 39.97511292 206.01863098 C54.86005436 185.97997863 75.46235342 169.55017585 97.97511292 158.76863098 C94.64148198 149.05296864 86.22891673 140.8465918 79.35011292 133.39363098 C78.83666321 132.83554749 78.3232135 132.27746399 77.79420471 131.70246887 C53.80853076 106.17862029 21.14953424 87.49347413 -13.02488708 79.76863098 C-14.01488708 79.76863098 -15.00488708 79.76863098 -16.02488708 79.76863098 Z M166.97511292 187.76863098 C167.1336676 188.37964661 167.29222229 188.99066223 167.45558167 189.62019348 C169.5135037 197.69270532 171.36371659 205.8055877 173.17311096 213.93708801 C174.29387472 218.93428736 175.50650185 223.8619811 176.97511292 228.76863098 C177.50878479 228.35870911 178.04245667 227.94878723 178.59230042 227.52644348 C186.26299449 221.97912493 192.75868581 221.10609782 202.02809143 220.13020325 C220.34183326 218.1582046 238.46501289 212.44858766 252.97511292 200.76863098 C253.52393127 200.32906067 254.07274963 199.88949036 254.63819885 199.43659973 C256.44907175 197.9768847 258.24616879 196.5021135 260.03761292 195.01863098 C260.89745789 194.31045227 260.89745789 194.31045227 261.77467346 193.58796692 C264.40306756 191.35839387 265.86449938 190.1004716 266.97511292 186.76863098 C255.11797247 186.74542893 243.26083745 186.72767583 231.40367889 186.71681881 C225.89753414 186.71160718 220.39140496 186.7045408 214.88526917 186.69319153 C209.56846972 186.68230148 204.25168523 186.67634119 198.93487549 186.67375374 C196.90957402 186.67191051 194.88427335 186.66831117 192.85897827 186.66290092 C190.01551058 186.65560929 187.17210413 186.65464346 184.32862854 186.65510559 C183.4971228 186.65151031 182.66561707 186.64791504 181.80891418 186.64421082 C176.77729151 186.6530209 171.95651125 187.04972524 166.97511292 187.76863098 Z M325.97511292 186.76863098 C325.35765198 187.78441223 324.74019104 188.80019348 324.10401917 189.84675598 C301.88229168 226.10861515 272.36356767 251.21836454 230.97511292 262.76863098 C229.83815979 263.08831848 228.70120667 263.40800598 227.52980042 263.73738098 C225.01567069 264.43182091 222.4990499 265.11091012 219.97511292 265.76863098 C228.02917551 277.9647829 239.92238914 285.58618633 252.06105042 293.26081848 C260.06908539 298.34291432 266.61087981 302.52147294 269.28761292 311.95613098 C270.72570184 319.14657559 268.95926163 326.65011688 264.97511292 332.76863098 C259.87731056 337.86643334 254.68167163 340.60231267 247.41676331 340.92829895 C242.61324541 340.89175265 238.22583442 339.87318924 233.58839417 338.69441223 C232.68784805 338.47263809 231.78730194 338.25086395 230.85946655 338.02236938 C219.25813458 335.13959171 207.7101749 332.04569664 196.16261292 328.95613098 C193.89770659 328.3523616 191.63273294 327.74884467 189.36769104 327.14558411 C183.90272237 325.68949612 178.43857962 324.23034391 172.97511292 322.76863098 C171.23990553 325.37144206 170.55822298 326.79396727 169.78370667 329.69831848 C169.56617737 330.48279358 169.34864807 331.26726868 169.12452698 332.07551575 C168.88959534 332.92299377 168.6546637 333.7704718 168.41261292 334.64363098 C158.87561476 367.523539 140.8829989 399.83091642 116.93605042 424.43659973 C114.93761915 426.81322018 113.94343244 428.83764231 112.97511292 431.76863098 C132.88379228 441.74580172 151.71441262 448.03068581 174.10011292 449.20613098 C181.1654208 449.66456699 186.37205633 451.57049431 191.78761292 456.14363098 C201.48823655 467.78437934 204.09188338 481.89795063 202.97511292 496.76863098 C202.01083264 502.19332567 200.48965372 507.4768619 198.97511292 512.76863098 C198.63482165 514.10020552 198.29726399 515.4325518 197.97511292 516.76863098 C216.33890845 513.56225398 239.59213532 507.80929047 251.77589417 492.50691223 C256.79040009 485.26639652 258.48409209 478.68750176 259.65480042 470.09480286 C260.89833991 462.14604187 264.66322866 457.50254417 270.97511292 452.76863098 C275.71618887 449.80545851 281.14800822 449.64840261 286.61891174 449.61091614 C288.24770012 449.59552292 288.24770012 449.59552292 289.90939331 449.57981873 C291.07190109 449.5725174 292.23440887 449.56521606 293.43214417 449.55769348 C295.93280145 449.52959819 298.4334524 449.50093359 300.93409729 449.47175598 C304.84579607 449.43075234 308.75737989 449.39383635 312.66920471 449.36726379 C355.14355484 449.05425797 389.87139606 438.28839903 420.36183167 407.82087708 C442.58743752 384.85704749 455.8917292 351.94454656 456.01417542 319.97077942 C455.44668335 287.9784143 445.48907225 256.88036432 423.97511292 232.76863098 C423.21714417 231.86757629 422.45917542 230.96652161 421.67823792 230.03816223 C415.19884568 222.5318075 407.98073633 216.54550279 399.97511292 210.76863098 C399.41839905 210.36370422 398.86168518 209.95877747 398.2881012 209.5415802 C376.77310969 194.14104123 351.99202849 188.34731834 325.97511292 186.76863098 Z M98.66261292 214.14363098 C98.10606018 214.57208313 97.54950745 215.00053528 96.97608948 215.44197083 C94.03109102 217.72197742 94.03109102 217.72197742 91.97511292 220.76863098 C92.66024963 220.77797668 93.34538635 220.78732239 94.05128479 220.79695129 C97.19325727 220.85105008 100.33380359 220.93461922 103.47511292 221.01863098 C104.55276917 221.03281067 105.63042542 221.04699036 106.74073792 221.06159973 C113.5081885 221.26792444 118.21546662 222.23415229 123.97511292 225.76863098 C125.30325773 226.44557528 126.6353856 227.11490861 127.97511292 227.76863098 C125.13018057 214.08957988 125.13018057 214.08957988 120.97511292 200.76863098 C114.22084833 200.76863098 103.80837232 210.17607905 98.66261292 214.14363098 Z M57.97511292 267.76863098 C44.29759623 296.35688306 44.44920125 331.14821216 54.54151917 360.79988098 C59.2487613 374.04941193 65.27908378 389.14915024 75.97511292 398.76863098 C86.00552346 388.79138516 94.28596833 378.60541098 101.97511292 366.76863098 C102.3708551 366.17098938 102.76659729 365.57334778 103.17433167 364.95759583 C112.31137213 351.06882654 129.1847737 324.08868731 125.97511292 306.76863098 C123.96323485 305.00640786 123.96323485 305.00640786 121.22511292 303.64363098 C107.59837828 295.54124822 96.59768111 283.74981597 90.97511292 268.76863098 C79.95621752 268.06180608 69.01823477 267.62204087 57.97511292 267.76863098 Z " fill="#6599CC" transform="translate(496.02488708496094,27.231369018554688)"/>
<path d="M0 0 C2.4633278 0.00119935 4.92665606 0.00164338 7.38998413 0.00138855 C12.53833923 0.00294145 17.68662365 0.0111216 22.83496094 0.0246582 C29.25776731 0.04137931 35.68049567 0.04535397 42.10332108 0.04489326 C57.17268298 0.04500687 72.24120288 0.10009895 87.31019592 0.20514679 C89.79235517 0.22207355 92.27452342 0.23772737 94.75669861 0.2521286 C102.0127314 0.29447332 109.26801803 0.35763115 116.52357101 0.45181847 C118.73894138 0.47813523 120.95439384 0.49843819 123.16987991 0.51185036 C174.46337502 0.8511864 218.672161 21.0195202 254.80859375 57.00390625 C278.40652096 81.79021829 293.60220829 113.77341802 300.0234375 147.23046875 C300.29160278 148.59123535 300.29160278 148.59123535 300.56518555 149.97949219 C302.26915472 159.61280032 302.37956576 169.10604581 302.3359375 178.85546875 C302.33320328 180.11987289 302.33320328 180.11987289 302.33041382 181.40982056 C302.28602012 193.58714213 301.89920778 205.34636197 299.0234375 217.23046875 C298.84651367 218.00793457 298.66958984 218.78540039 298.48730469 219.58642578 C291.24258 251.11161378 275.56759414 279.36943318 253.8359375 303.16796875 C253.37340576 303.67537598 252.91087402 304.1827832 252.43432617 304.70556641 C228.63733848 330.18533811 196.5809003 346.81115902 162.8359375 354.48046875 C162.17271484 354.63161133 161.50949219 354.78275391 160.82617188 354.93847656 C147.12411493 357.85394785 133.53621547 358.59367094 119.5859375 358.85546875 C117.87172773 358.89377511 116.15753459 358.93283346 114.44335938 358.97265625 C110.3035252 359.06723052 106.16360212 359.15174258 102.0234375 359.23046875 C101.63454346 360.17438477 101.24564941 361.11830078 100.8449707 362.09082031 C100.3175316 363.35104189 99.78976334 364.61112575 99.26171875 365.87109375 C99.00749146 366.49064941 98.75326416 367.11020508 98.49133301 367.74853516 C95.86882397 373.97060648 92.28336558 379.03696527 88.0234375 384.23046875 C87.33378906 385.08382813 86.64414062 385.9371875 85.93359375 386.81640625 C69.19416496 406.49204587 45.18924534 415.5806733 20.98828125 422.26953125 C19.60292159 422.65533459 18.21760286 423.04128496 16.83232117 423.42736816 C-0.12898121 428.14161122 -17.1279575 432.71895526 -34.13793945 437.25390625 C-37.85778009 438.24623751 -41.57570653 439.24534109 -45.29223633 440.25 C-49.87814542 441.48962383 -54.46697594 442.71781308 -59.05808449 443.93803406 C-60.77608075 444.39658132 -62.49306224 444.85895113 -64.20889854 445.32551575 C-90.52555669 452.47168128 -90.52555669 452.47168128 -100.75390625 447.58203125 C-106.37890652 444.16155657 -109.84012131 440.5483081 -111.9140625 434.23046875 C-113.69897618 426.89125845 -113.47168847 420.93498442 -109.9765625 414.23046875 C-105.51843211 408.04796716 -100.29737586 404.11672568 -93.7890625 400.29296875 C-92.09669107 399.26021664 -90.40658184 398.22374838 -88.71875 397.18359375 C-87.9050293 396.68279297 -87.09130859 396.18199219 -86.25292969 395.66601562 C-70.95713398 386.02001833 -55.82112191 373.16969625 -46.9765625 357.23046875 C-48.2346875 356.99972656 -49.4928125 356.76898437 -50.7890625 356.53125 C-82.05944544 350.64021823 -112.34589993 339.15397319 -135.9765625 317.23046875 C-137.18271847 316.20706369 -138.39106817 315.18623866 -139.6015625 314.16796875 C-149.90753774 305.14249545 -159.81071839 295.2399122 -167.9765625 284.23046875 C-168.76160156 283.1734375 -169.54664063 282.11640625 -170.35546875 281.02734375 C-191.04623098 252.09938498 -201.40390388 215.77343609 -201.3515625 180.41796875 C-201.35068634 179.75571289 -201.34981018 179.09345703 -201.34890747 178.41113281 C-201.23378912 151.68136987 -196.16831684 124.77529691 -183.09179688 101.23876953 C-181.86964794 99.03793828 -180.68073641 96.82070602 -179.4921875 94.6015625 C-175.099266 86.47023307 -170.57325604 78.60731541 -164.9765625 71.23046875 C-164.47253906 70.53566406 -163.96851563 69.84085937 -163.44921875 69.125 C-138.52105985 35.66397497 -102.84201548 15.69071206 -62.9765625 5.23046875 C-61.80738281 4.91464844 -60.63820313 4.59882813 -59.43359375 4.2734375 C-40.11632023 -0.411636 -19.74367984 -0.06525104 0 0 Z M-33.9765625 49.23046875 C-33.81800781 49.84148437 -33.65945313 50.4525 -33.49609375 51.08203125 C-31.43817172 59.15454309 -29.58795882 67.26742547 -27.77856445 75.39892578 C-26.65780069 80.39612512 -25.44517357 85.32381887 -23.9765625 90.23046875 C-23.44289063 89.82054687 -22.90921875 89.410625 -22.359375 88.98828125 C-14.68868092 83.4409627 -8.19298961 82.56793559 1.07641602 81.59204102 C19.39015784 79.62004237 37.51333748 73.91042542 52.0234375 62.23046875 C52.57225586 61.79089844 53.12107422 61.35132813 53.68652344 60.8984375 C55.49739633 59.43872247 57.29449338 57.96395127 59.0859375 56.48046875 C59.94578247 55.77229004 59.94578247 55.77229004 60.82299805 55.04980469 C63.45139215 52.82023164 64.91282396 51.56230937 66.0234375 48.23046875 C54.16629705 48.2072667 42.30916203 48.1895136 30.45200348 48.17865658 C24.94585873 48.17344495 19.43972954 48.16637857 13.93359375 48.1550293 C8.61679431 48.14413925 3.30000981 48.13817895 -2.01679993 48.13559151 C-4.04210139 48.13374828 -6.06740207 48.13014894 -8.09269714 48.12473869 C-10.93616484 48.11744706 -13.77957129 48.11648123 -16.62304688 48.11694336 C-17.45455261 48.11334808 -18.28605835 48.10975281 -19.14276123 48.10604858 C-24.17438391 48.11485867 -28.99516417 48.51156301 -33.9765625 49.23046875 Z M125.0234375 48.23046875 C124.40597656 49.24625 123.78851562 50.26203125 123.15234375 51.30859375 C100.93061626 87.57045292 71.41189225 112.68020231 30.0234375 124.23046875 C28.88648438 124.55015625 27.74953125 124.86984375 26.578125 125.19921875 C24.06399527 125.89365867 21.54737448 126.57274788 19.0234375 127.23046875 C27.07750009 139.42662067 38.97071373 147.0480241 51.109375 154.72265625 C59.11740997 159.80475209 65.65920439 163.98331071 68.3359375 173.41796875 C69.77402642 180.60841335 68.00758622 188.11195465 64.0234375 194.23046875 C58.92563514 199.32827111 53.72999622 202.06415044 46.46508789 202.39013672 C41.66156999 202.35359042 37.27415901 201.33502701 32.63671875 200.15625 C31.73617264 199.93447586 30.83562653 199.71270172 29.90779114 199.48420715 C18.30645917 196.60142948 6.75849949 193.50753441 -4.7890625 190.41796875 C-7.05396883 189.81419937 -9.31894247 189.21068244 -11.58398438 188.60742188 C-17.04895304 187.15133389 -22.5130958 185.69218168 -27.9765625 184.23046875 C-29.71176989 186.83327983 -30.39345244 188.25580504 -31.16796875 191.16015625 C-31.38549805 191.94463135 -31.60302734 192.72910645 -31.82714844 193.53735352 C-32.06208008 194.38483154 -32.29701172 195.23230957 -32.5390625 196.10546875 C-42.07606066 228.98537677 -60.06867652 261.29275419 -84.015625 285.8984375 C-86.01405627 288.27505795 -87.00824297 290.29948008 -87.9765625 293.23046875 C-68.06788314 303.20763949 -49.23726279 309.49252358 -26.8515625 310.66796875 C-19.78625462 311.12640476 -14.57961908 313.03233208 -9.1640625 317.60546875 C0.53656113 329.24621711 3.14020796 343.3597884 2.0234375 358.23046875 C1.05915722 363.65516344 -0.46202169 368.93869967 -1.9765625 374.23046875 C-2.31685377 375.56204328 -2.65441143 376.89438957 -2.9765625 378.23046875 C15.38723303 375.02409175 38.64045991 369.27112824 50.82421875 353.96875 C55.83872467 346.72823429 57.53241668 340.14933953 58.703125 331.55664062 C59.9466645 323.60787964 63.71155324 318.96438194 70.0234375 314.23046875 C74.76451346 311.26729628 80.19633281 311.11024038 85.66723633 311.07275391 C87.2960247 311.05736069 87.2960247 311.05736069 88.9577179 311.04165649 C90.12022568 311.03435516 91.28273346 311.02705383 92.48046875 311.01953125 C94.98112604 310.99143595 97.48177698 310.96277136 99.98242188 310.93359375 C103.89412066 310.89259011 107.80570447 310.85567412 111.7175293 310.82910156 C154.19187943 310.51609574 188.91972065 299.75023679 219.41015625 269.28271484 C241.63576211 246.31888526 254.94005379 213.40638433 255.0625 181.43261719 C254.49500794 149.44025207 244.53739683 118.34220208 223.0234375 94.23046875 C222.26546875 93.32941406 221.5075 92.42835938 220.7265625 91.5 C214.24717026 83.99364527 207.02906091 78.00734056 199.0234375 72.23046875 C198.46672363 71.82554199 197.91000977 71.42061523 197.33642578 71.00341797 C175.82143427 55.602879 151.04035308 49.80915611 125.0234375 48.23046875 Z M-102.2890625 75.60546875 C-102.84561523 76.0339209 -103.40216797 76.46237305 -103.97558594 76.90380859 C-106.92058439 79.18381519 -106.92058439 79.18381519 -108.9765625 82.23046875 C-108.29142578 82.23981445 -107.60628906 82.24916016 -106.90039062 82.25878906 C-103.75841815 82.31288785 -100.61787183 82.39645699 -97.4765625 82.48046875 C-96.39890625 82.49464844 -95.32125 82.50882813 -94.2109375 82.5234375 C-87.44348692 82.72976221 -82.73620879 83.69599006 -76.9765625 87.23046875 C-75.64841769 87.90741304 -74.31628982 88.57674638 -72.9765625 89.23046875 C-75.82149485 75.55141765 -75.82149485 75.55141765 -79.9765625 62.23046875 C-86.73082708 62.23046875 -97.1433031 71.63791682 -102.2890625 75.60546875 Z M-142.9765625 129.23046875 C-156.65407918 157.81872083 -156.50247416 192.61004993 -146.41015625 222.26171875 C-141.70291412 235.5112497 -135.67259163 250.610988 -124.9765625 260.23046875 C-114.94615196 250.25322293 -106.66570708 240.06724875 -98.9765625 228.23046875 C-98.58082031 227.63282715 -98.18507813 227.03518555 -97.77734375 226.41943359 C-88.64030328 212.53066431 -71.76690171 185.55052508 -74.9765625 168.23046875 C-76.98844057 166.46824563 -76.98844057 166.46824563 -79.7265625 165.10546875 C-93.35329714 157.00308599 -104.35399431 145.21165374 -109.9765625 130.23046875 C-120.99545789 129.52364385 -131.93344064 129.08387864 -142.9765625 129.23046875 Z " fill="#FBAF3E" transform="translate(696.9765625,165.76953125)"/>
<path d="M0 0 C1.19696615 -0.01006551 2.3939323 -0.02013102 3.62717015 -0.03050154 C6.93309647 -0.05216544 10.23698064 -0.04708565 13.54280245 -0.03037608 C17.11418354 -0.01882936 20.68536976 -0.04186071 24.25669861 -0.06033325 C31.24649756 -0.09083207 38.23592302 -0.08882968 45.22576051 -0.07488243 C50.9082125 -0.06405521 56.5905572 -0.06459749 62.27301216 -0.07320213 C63.48725979 -0.07501431 63.48725979 -0.07501431 64.72603767 -0.07686311 C66.37065485 -0.07935382 68.01527199 -0.08186481 69.65988911 -0.08439585 C85.07393227 -0.10666607 100.48776652 -0.09141256 115.90178961 -0.06380954 C129.11883575 -0.0410942 142.33549464 -0.05276844 155.55250549 -0.08903503 C170.91073905 -0.13117256 186.26873258 -0.15026872 201.62702328 -0.13401049 C203.26581478 -0.13235089 204.90460633 -0.13072754 206.5433979 -0.12914085 C207.3496559 -0.12835591 208.1559139 -0.12757097 208.98660396 -0.12676224 C214.65969336 -0.12287575 220.33260575 -0.13557324 226.0056591 -0.15487099 C232.92311507 -0.17802792 239.84003185 -0.17632877 246.75745492 -0.14295784 C250.28493648 -0.12658374 253.81148378 -0.1212856 257.33893394 -0.14655685 C261.16753384 -0.17361575 264.99466153 -0.14615424 268.82324219 -0.11352539 C269.93161751 -0.12982256 271.03999283 -0.14611973 272.18195528 -0.16291076 C280.14381983 -0.02705083 284.26743622 2.33440125 289.97511292 7.76863098 C291.02360115 8.66065616 292.07415933 9.55025825 293.12745667 10.43659973 C320.09258218 34.83001622 336.48044637 67.70671746 340.97511292 103.76863098 C341.06450106 106.37741556 341.11573028 108.95790527 341.10792542 111.56550598 C341.1093605 112.63868073 341.1093605 112.63868073 341.11082458 113.73353577 C341.11150031 115.23270252 341.10968878 116.73187231 341.10548401 118.23103333 C341.10009518 120.52618416 341.10546578 122.82114214 341.11183167 125.11628723 C341.11117139 126.57852725 341.10989129 128.04076714 341.10792542 129.50300598 C341.10994965 130.18739746 341.11197388 130.87178894 341.11405945 131.57691956 C341.09916792 134.5903374 340.93652768 136.88438668 339.97511292 139.76863098 C324.13511292 139.76863098 308.29511292 139.76863098 291.97511292 139.76863098 C292.05761292 134.67425598 292.14011292 129.57988098 292.22511292 124.33113098 C292.28964477 112.29007259 292.01059753 101.24650468 287.97511292 89.76863098 C287.76612366 89.13940735 287.5571344 88.51018372 287.34181213 87.8618927 C279.29498194 63.90222977 261.65281986 43.10748446 238.97511292 31.76863098 C215.51041979 20.91142449 192.15630248 20.6082384 166.71730042 20.60066223 C164.16205324 20.59744173 161.60680625 20.59407708 159.05155945 20.59057617 C153.71096801 20.58461254 148.37039354 20.58269012 143.02980042 20.58332825 C136.91210826 20.58392739 130.79450473 20.57339608 124.67683494 20.55758458 C118.72882547 20.54277588 112.78084223 20.53934443 106.83281326 20.53993797 C104.33177962 20.53877016 101.83074508 20.53441717 99.32972336 20.52660561 C69.42437453 20.44194525 44.8547846 22.83506639 18.97511292 38.76863098 C19.51063782 38.97318909 20.04616272 39.17774719 20.59791565 39.38850403 C42.07534311 47.67767915 62.78995955 57.39549921 81.16847229 71.39704895 C82.86288729 72.6834305 84.57740117 73.935048 86.30323792 75.17878723 C110.4418319 92.98545939 130.61598307 116.0738461 145.97511292 141.76863098 C143.19797609 143.25113602 140.55790126 144.25830956 137.51808167 145.06550598 C136.65948547 145.29914856 135.80088928 145.53279114 134.91627502 145.77351379 C134.00756653 146.01940247 133.09885803 146.26529114 132.16261292 146.51863098 C117.54627486 150.54670424 117.54627486 150.54670424 103.88526917 157.00300598 C101.03511678 158.14539835 99.8262828 157.95197367 96.97511292 156.76863098 C94.83992679 154.54948127 93.15388192 152.05193956 91.41261292 149.51863098 C87.43786551 143.98290766 83.36554438 138.70156405 78.72511292 133.70613098 C78.26677063 133.20758606 77.80842834 132.70904114 77.3361969 132.19538879 C51.81457939 105.09422801 19.20539965 89.80591219 -16.02488708 79.76863098 C-18.39067355 88.37945432 -18.39067355 88.37945432 -20.64988708 97.01863098 C-20.88965271 97.95191223 -21.12941833 98.88519348 -21.37644958 99.84675598 C-27.09324159 125.60675849 -21.63630481 152.36257382 -7.60301208 174.48347473 C3.26163156 190.21569387 17.05471389 203.60047137 34.97511292 210.76863098 C33.43179812 215.19727344 31.03642408 218.88106662 28.47511292 222.76863098 C23.67070908 230.20676357 19.8473827 237.96388704 16.19972229 246.02449036 C15.8059137 246.8875177 15.4121051 247.75054504 15.00636292 248.63972473 C14.6615387 249.41243713 14.31671448 250.18514954 13.96144104 250.98127747 C12.97511292 252.76863098 12.97511292 252.76863098 10.97511292 253.76863098 C8.6707323 252.79560163 6.54451147 251.76623396 4.35011292 250.58113098 C3.68713196 250.22381897 3.024151 249.86650696 2.34107971 249.49836731 C-14.45882832 240.1374893 -29.40758856 227.03271307 -41.02488708 211.76863098 C-41.69004333 210.91913879 -42.35519958 210.06964661 -43.04051208 209.19441223 C-66.38333617 178.45356713 -75.82768534 139.47668801 -71.49363708 101.26863098 C-70.86787596 96.72500237 -70.02228408 92.24443644 -69.02488708 87.76863098 C-68.75805115 86.56722473 -68.49121521 85.36581848 -68.21629333 84.12800598 C-63.41324003 65.42811845 -53.98293773 46.49084011 -42.00535583 31.35456848 C-40.00347273 28.84632916 -40.00347273 28.84632916 -38.52488708 26.23738098 C-33.92263406 18.66283954 -26.91955928 12.26491287 -20.02488708 6.76863098 C-19.51551776 6.28752328 -19.00614844 5.80641557 -18.48134369 5.31072885 C-12.57617326 0.17094372 -7.62777331 -0.08724028 0 0 Z " fill="#99CB99" transform="translate(496.02488708496094,27.231369018554688)"/>
<path d="M0 0 C19.47 0 38.94 0 59 0 C55.74444382 6.51111236 52.7272002 12.342974 48.5625 18.1875 C47.79087524 19.271521 47.79087524 19.271521 47.00366211 20.37744141 C26.34849643 48.73301137 -2.43908401 67.46277522 -36 77 C-38.00081638 77.60145753 -40.00095103 78.20519399 -42 78.8125 C-43.33303387 79.20934067 -44.66623011 79.60564015 -46 80 C-37.54557937 91.09245413 -25.67811657 98.86024001 -13.94970703 106.12036133 C-6.01143313 111.07964448 0.69053961 115.84676609 3.3125 125.1875 C4.74585471 132.35427356 3.00683286 139.92066739 -1 146 C-6.20281489 151.63177037 -11.86021862 154.8166855 -19.55615234 155.1574707 C-24.36115461 155.1230629 -28.74790614 154.10490709 -33.38671875 152.92578125 C-34.28726486 152.70400711 -35.18781097 152.48223297 -36.11564636 152.2537384 C-47.71697833 149.37096073 -59.26493801 146.27706566 -70.8125 143.1875 C-73.07740633 142.58373062 -75.34237997 141.98021369 -77.60742188 141.37695312 C-83.07239054 139.92086514 -88.5365333 138.46171293 -94 137 C-94.35227661 138.15109253 -94.35227661 138.15109253 -94.71166992 139.32543945 C-106.00408447 175.76803392 -122.49059142 209.7946484 -148.94140625 237.765625 C-150.78215398 239.76355233 -152.41723283 241.79525085 -154 244 C-167.35258275 241.854621 -181.35936862 225.26608618 -189.92578125 215.62109375 C-191 214 -191 214 -191 211 C-190.34 211 -189.68 211 -189 211 C-188.76152344 210.43796875 -188.52304687 209.8759375 -188.27734375 209.296875 C-186.72058989 206.49757448 -184.79411494 204.54945603 -182.5625 202.25 C-176.21265839 195.36947998 -171.09163641 187.83813848 -166 180 C-165.60425781 179.4023584 -165.20851563 178.8047168 -164.80078125 178.18896484 C-153.34537077 160.77615446 -144.81429262 140.52639943 -141 120 C-141.71800781 119.7421875 -142.43601562 119.484375 -143.17578125 119.21875 C-157.1491568 113.18874561 -168.2821761 100.38302777 -175 87 C-175.71484375 84.11328125 -175.71484375 84.11328125 -176 82 C-177.12535156 82.01160156 -178.25070312 82.02320313 -179.41015625 82.03515625 C-189.32721122 82.10461253 -199.11453986 81.81649818 -209 81 C-208.38241104 76.62747015 -206.74798187 73.04213603 -204.6875 69.1875 C-204.34283691 68.54167969 -203.99817383 67.89585937 -203.64306641 67.23046875 C-198.46765904 57.87380006 -191.77091097 49.48069097 -184.9453125 41.28125 C-184.27653076 40.4778418 -184.27653076 40.4778418 -183.59423828 39.65820312 C-178.40084344 34.25643624 -178.40084344 34.25643624 -174.17260742 33.48242188 C-173.16045166 33.47791016 -172.1482959 33.47339844 -171.10546875 33.46875 C-169.42420898 33.46101563 -169.42420898 33.46101563 -167.70898438 33.453125 C-165.96584961 33.47632813 -165.96584961 33.47632813 -164.1875 33.5 C-162.46176758 33.47679687 -162.46176758 33.47679687 -160.70117188 33.453125 C-151.51966733 33.49521786 -146.18224073 35.5094887 -139 41 C-139.3259314 39.94872925 -139.3259314 39.94872925 -139.65844727 38.8762207 C-140.63839712 35.6918448 -141.60059208 32.50236989 -142.5625 29.3125 C-142.90474609 28.20970703 -143.24699219 27.10691406 -143.59960938 25.97070312 C-144.07817383 24.3706543 -144.07817383 24.3706543 -144.56640625 22.73828125 C-144.86490479 21.75899658 -145.16340332 20.77971191 -145.47094727 19.77075195 C-146.04977797 16.73930309 -146.04920471 14.90136902 -145 12 C-143.40869141 10.83740234 -143.40869141 10.83740234 -141.3515625 10.0859375 C-140.2219812 9.65885498 -140.2219812 9.65885498 -139.06958008 9.22314453 C-138.26286865 8.94325684 -137.45615723 8.66336914 -136.625 8.375 C-135.80733154 8.07577637 -134.98966309 7.77655273 -134.1472168 7.46826172 C-122.77821264 3.37348851 -112.13682091 0.75230978 -100 1 C-95.21674471 13.70106936 -92.56936116 26.7004579 -90 40 C-87.62363078 40.20690098 -87.62363078 40.20690098 -85 37.625 C-78.97864436 33.26258928 -72.16395397 33.11506636 -64.94262695 32.359375 C-39.43819401 29.63314678 -19.74631402 19.04981501 -1 2 C-0.67 1.34 -0.34 0.68 0 0 Z " fill="#99CC99" transform="translate(763,214)"/>
<path d="M0 0 C27.20056214 11.00386377 52.39215789 25.76232418 73.765625 45.98046875 C75.34857701 47.35590772 76.93192625 48.73088964 78.515625 50.10546875 C94.46001482 64.55507203 107.73480934 81.5266606 118.765625 99.98046875 C115.98848817 101.46297379 113.34841334 102.47014733 110.30859375 103.27734375 C109.44999756 103.51098633 108.59140137 103.74462891 107.70678711 103.98535156 C106.79807861 104.23124023 105.88937012 104.47712891 104.953125 104.73046875 C90.33678694 108.758542 90.33678694 108.758542 76.67578125 115.21484375 C73.82562887 116.35723612 72.61679489 116.16381144 69.765625 114.98046875 C67.63043888 112.76131904 65.944394 110.26377733 64.203125 107.73046875 C60.22837759 102.19474543 56.15605647 96.91340182 51.515625 91.91796875 C51.05728271 91.41942383 50.59894043 90.92087891 50.12670898 90.40722656 C24.60509147 63.30606578 -8.00408826 48.01774996 -43.234375 37.98046875 C-37.40200857 22.43692908 -25.81641746 8.27679004 -12.79296875 -1.93359375 C-8.2373637 -3.86711772 -4.38644404 -1.64131263 0 0 Z " fill="#6699CB" transform="translate(523.234375,69.01953125)"/>
<path d="M0 0 C4.40340608 0.56019663 7.76798388 1.69588856 11.75 3.625 C22.68822449 8.49168303 34.42582092 11.07316609 46 14 C42.69156778 51.04573442 17.15771799 90.22402235 -7.94140625 116.765625 C-9.78215398 118.76355233 -11.41723283 120.79525085 -13 123 C-26.35258275 120.854621 -40.35936862 104.26608618 -48.92578125 94.62109375 C-50 93 -50 93 -50 90 C-49.34 90 -48.68 90 -48 90 C-47.76152344 89.43796875 -47.52304687 88.8759375 -47.27734375 88.296875 C-45.72058989 85.49757448 -43.79411494 83.54945603 -41.5625 81.25 C-35.21265839 74.36947998 -30.09163641 66.83813848 -25 59 C-24.60425781 58.4023584 -24.20851563 57.8047168 -23.80078125 57.18896484 C-12.28168777 39.67935303 -5.1329036 20.21863248 0 0 Z " fill="#6699CB" transform="translate(622,335)"/>
<path d="M0 0 C3.40375969 9.03806828 5.86049066 18.11989061 7.875 27.5625 C8.1021167 28.59697266 8.3292334 29.63144531 8.56323242 30.69726562 C10.1555256 38.4310809 9.98697555 43.42804464 6.5 50.625 C3.5536391 56.74041187 2.83959856 61.46472454 2.875 68.25 C2.87113281 68.97574219 2.86726562 69.70148438 2.86328125 70.44921875 C2.87207186 75.38074827 3.30410629 80.11769806 4 85 C-8.27082389 84.27818683 -20.24357562 78.91388342 -28.84375 70.11328125 C-32.97408934 64.79850636 -34.0698523 59.19361756 -34.97631836 52.67211914 C-35.40893383 49.64011012 -35.8280812 47.2830775 -37.42993164 44.64550781 C-40.28096744 39.84161667 -41.32072901 34.36417755 -42.75 29 C-43.07871094 27.824375 -43.40742187 26.64875 -43.74609375 25.4375 C-44.05160156 24.303125 -44.35710938 23.16875 -44.671875 22 C-44.9512793 20.96875 -45.23068359 19.9375 -45.51855469 18.875 C-46.03031 15.8190007 -46.05258572 13.91314664 -45 11 C-43.40869141 9.83740234 -43.40869141 9.83740234 -41.3515625 9.0859375 C-40.5985083 8.80121582 -39.8454541 8.51649414 -39.06958008 8.22314453 C-38.26286865 7.94325684 -37.45615723 7.66336914 -36.625 7.375 C-35.80733154 7.07577637 -34.98966309 6.77655273 -34.1472168 6.46826172 C-22.77821264 2.37348851 -12.13682091 -0.24769022 0 0 Z " fill="#6699CB" transform="translate(663,215)"/>
</svg>
